<svg width="40" height="40" viewBox="0 0 40 40" fill="none" xmlns="http://www.w3.org/2000/svg">
<path d="M8.22254 16.2332V39.0458C8.22254 39.5763 7.95729 39.8415 7.42681 39.8415H2.01518C1.48469 39.8415 1.21945 39.5763 1.21945 39.0458V16.2332C1.21945 15.7027 1.48469 15.4375 2.01518 15.4375H7.42681C7.95729 15.4375 8.22254 15.7027 8.22254 16.2332ZM20 30.558C17.3492 30.558 15.279 32.6299 15.279 35.279C15.279 37.9298 17.3509 40 20 40C22.6508 40 24.721 37.9281 24.721 35.279C24.721 32.6299 22.6508 30.558 20 30.558ZM35.279 30.558C32.6282 30.558 30.558 32.6299 30.558 35.279C30.558 37.9298 32.6299 40 35.279 40C37.9298 40 40 37.9281 40 35.279C40 32.6299 37.9281 30.558 35.279 30.558ZM20 15.279C17.3492 15.279 15.279 17.3509 15.279 20C15.279 22.6508 17.3509 24.721 20 24.721C22.6508 24.721 24.721 22.6491 24.721 20C24.721 17.3509 22.6508 15.279 20 15.279ZM35.279 15.279C32.6282 15.279 30.558 17.3509 30.558 20C30.558 22.6508 32.6299 24.721 35.279 24.721C37.9298 24.721 40 22.6491 40 20C40 17.3509 37.9281 15.279 35.279 15.279ZM20 0C17.3492 0 15.279 2.0719 15.279 4.72099C15.279 7.37176 17.3509 9.44199 20 9.44199C22.6508 9.44199 24.721 7.37009 24.721 4.72099C24.721 2.0719 22.6508 0 20 0ZM35.279 9.44199C37.9298 9.44199 40 7.37009 40 4.72099C40 2.07023 37.9281 0 35.279 0C32.6282 0 30.558 2.0719 30.558 4.72099C30.558 7.37176 32.6282 9.44199 35.279 9.44199ZM4.72099 0C2.0719 0 0 2.0719 0 4.72099C0 7.37176 2.0719 9.44199 4.72099 9.44199C7.37176 9.44199 9.44199 7.37009 9.44199 4.72099C9.44199 2.0719 7.37176 0 4.72099 0Z" fill="url(#paint0_linear)"/>
<defs>
<linearGradient id="paint0_linear" x1="1.1276" y1="1.60629" x2="38.3941" y2="38.8728" gradientUnits="userSpaceOnUse">
<stop stop-color="#0161FD"/>
<stop offset="0.25" stop-color="#3F46D2"/>
<stop offset="0.51" stop-color="#812EA4"/>
<stop offset="0.77" stop-color="#C21578"/>
<stop offset="1" stop-color="#FD0050"/>
</linearGradient>
</defs>
</svg>
