<svg width="56" height="56" viewBox="0 0 56 56" fill="none" xmlns="http://www.w3.org/2000/svg">
<path d="M16.2225 24.2332V47.0458C16.2225 47.5763 15.9573 47.8415 15.4268 47.8415H10.0152C9.48469 47.8415 9.21945 47.5763 9.21945 47.0458V24.2332C9.21945 23.7027 9.48469 23.4375 10.0152 23.4375H15.4268C15.9573 23.4375 16.2225 23.7027 16.2225 24.2332ZM28 38.558C25.3492 38.558 23.279 40.6299 23.279 43.279C23.279 45.9298 25.3509 48 28 48C30.6508 48 32.721 45.9281 32.721 43.279C32.721 40.6299 30.6508 38.558 28 38.558ZM43.279 38.558C40.6282 38.558 38.558 40.6299 38.558 43.279C38.558 45.9298 40.6299 48 43.279 48C45.9298 48 48 45.9281 48 43.279C48 40.6299 45.9281 38.558 43.279 38.558ZM28 23.279C25.3492 23.279 23.279 25.3509 23.279 28C23.279 30.6508 25.3509 32.721 28 32.721C30.6508 32.721 32.721 30.6491 32.721 28C32.721 25.3509 30.6508 23.279 28 23.279ZM43.279 23.279C40.6282 23.279 38.558 25.3509 38.558 28C38.558 30.6508 40.6299 32.721 43.279 32.721C45.9298 32.721 48 30.6491 48 28C48 25.3509 45.9281 23.279 43.279 23.279ZM28 8C25.3492 8 23.279 10.0719 23.279 12.721C23.279 15.3718 25.3509 17.442 28 17.442C30.6508 17.442 32.721 15.3701 32.721 12.721C32.721 10.0719 30.6508 8 28 8ZM43.279 17.442C45.9298 17.442 48 15.3701 48 12.721C48 10.0702 45.9281 8 43.279 8C40.6282 8 38.558 10.0719 38.558 12.721C38.558 15.3718 40.6282 17.442 43.279 17.442ZM12.721 8C10.0719 8 8 10.0719 8 12.721C8 15.3718 10.0719 17.442 12.721 17.442C15.3718 17.442 17.442 15.3701 17.442 12.721C17.442 10.0719 15.3718 8 12.721 8Z" fill="url(#paint0_linear_262_13373)"/>
<defs>
<linearGradient id="paint0_linear_262_13373" x1="9.49276" y1="9.36598" x2="46.7571" y2="46.508" gradientUnits="userSpaceOnUse">
<stop stop-color="#0161FD"/>
<stop offset="0.25" stop-color="#3F46D2"/>
<stop offset="0.51" stop-color="#812EA4"/>
<stop offset="0.77" stop-color="#C21578"/>
<stop offset="1" stop-color="#FD0050"/>
</linearGradient>
</defs>
</svg>
